<svg height="512pt" viewBox="0 -1 512 512" width="512pt" xmlns="http://www.w3.org/2000/svg"><path d="m338.246094 293.59375v-22.9375c0-22.308594-18.085938-40.398438-40.398438-40.398438h-83.695312c-22.3125 0-40.398438 18.089844-40.398438 40.398438v22.9375" fill="#e8b07e"/><path d="m370.917969 115.453125c0-29.707031 0-107.851563-114.917969-107.851563s-114.917969 78.144532-114.917969 107.851563 51.449219 53.789063 114.917969 53.789063c63.464844 0 114.917969-24.082032 114.917969-53.789063zm0 0" fill="#e5e5e5"/><path d="m370.917969 115.453125c0 29.710937-51.453125 53.792969-114.917969 53.792969s-114.917969-24.082032-114.917969-53.792969c0-26.203125 0-90.113281 78.90625-104.800781-48.773437 18.542968-48.773437 61.5-48.773437 80.507812 0 24.597656 47.34375 44.542969 105.746094 44.542969 40.882812 0 76.347656-9.773437 93.945312-24.074219.011719 1.351563.011719 2.625.011719 3.824219zm0 0" fill="#cbcbcb"/><path d="m326.835938 112.144531v53.925781c0 34.515626-24.695313 63.265626-57.378907 69.546876-3.742187.71875-7.585937 1.148437-11.511719 1.257812h-.097656c-.613281.015625-1.226562.023438-1.84375.023438-39.125 0-70.832031-31.710938-70.832031-70.828126v-53.925781c45.183594-19.621093 96.480469-19.621093 141.664063 0zm0 0" fill="#ffcfa2"/><path d="m204.730469 166.070312v-61.089843c-6.617188 1.992187-13.148438 4.382812-19.558594 7.164062v53.925781c0 39.117188 31.707031 70.828126 70.832031 70.828126.617188 0 1.230469-.007813 1.84375-.023438h.097656c2.652344-.074219 5.261719-.296875 7.832032-.652344-34.488282-4.765625-61.046875-34.355468-61.046875-70.152344zm0 0" fill="#e8b07e"/><path d="m486.167969 304.574219v164.558593c0 18.890626-15.308594 34.199219-34.195313 34.199219h-391.949218c-18.886719 0-34.199219-15.308593-34.199219-34.199219v-164.558593zm0 0" fill="#a0633a"/><path d="m486.167969 342.917969v126.214843c0 18.890626-15.308594 34.199219-34.195313 34.199219h-368.601562v-160.414062zm0 0" fill="#b57e54"/><path d="m504.398438 276.785156v19.921875c0 8.730469-7.074219 15.796875-15.804688 15.796875h-465.191406c-8.730469 0-15.796875-7.066406-15.796875-15.796875v-19.921875c0-8.730468 7.066406-15.808594 15.796875-15.808594h465.191406c8.730469 0 15.804688 7.078126 15.804688 15.808594zm0 0" fill="#a0633a"/><path d="m504.398438 276.785156v19.921875c0 8.730469-7.074219 15.796875-15.804688 15.796875h-425.546875c-8.730469 0-15.808594-7.066406-15.808594-15.796875v-19.921875c0-8.730468 7.078125-15.808594 15.808594-15.808594h425.546875c8.730469 0 15.804688 7.078126 15.804688 15.808594zm0 0" fill="#b57e54"/><path d="m232.769531 193.757812c6.207031 6.207032 14.457031 9.625 23.234375 9.625s17.03125-3.417968 23.238282-9.625c2.96875-2.96875 2.96875-7.78125-.003907-10.75-2.96875-2.972656-7.78125-2.972656-10.75 0-3.335937 3.332032-7.769531 5.167969-12.484375 5.167969s-9.148437-1.835937-12.484375-5.167969c-2.964843-2.972656-7.78125-2.972656-10.75 0-2.96875 2.96875-2.972656 7.78125 0 10.75zm0 0"/><path d="m227.160156 157.382812c4.199219 0 7.605469-3.402343 7.605469-7.601562v-7.269531c0-4.199219-3.40625-7.601563-7.605469-7.601563-4.199218 0-7.601562 3.402344-7.601562 7.601563v7.269531c0 4.199219 3.402344 7.601562 7.601562 7.601562zm0 0"/><path d="m284.847656 157.382812c4.203125 0 7.605469-3.402343 7.605469-7.601562v-7.269531c0-4.199219-3.402344-7.601563-7.605469-7.601563-4.199218 0-7.601562 3.402344-7.601562 7.601563v7.269531c0 4.199219 3.402344 7.601562 7.601562 7.601562zm0 0"/><path d="m488.59375 253.375h-43.277344c-4.199218 0-7.601562 3.402344-7.601562 7.601562 0 4.199219 3.402344 7.605469 7.601562 7.605469h43.277344c4.519531 0 8.199219 3.675781 8.199219 8.199219v19.921875c0 4.519531-3.679688 8.199219-8.199219 8.199219h-465.1875c-4.519531 0-8.199219-3.679688-8.199219-8.199219v-19.921875c0-4.519531 3.679688-8.199219 8.199219-8.199219h391.496094c4.199218 0 7.601562-3.40625 7.601562-7.605469 0-4.199218-3.402344-7.601562-7.601562-7.601562h-72.25c-5.714844-14.890625-18.410156-25.828125-33.734375-29.429688 15.792969-14.472656 25.523437-35.230468 25.523437-57.875v-3.0625c28.089844-11.480468 44.078125-28.632812 44.078125-47.558593 0-15.367188 0-43.96875-15.5-69.054688-19.019531-30.785156-55.023437-46.394531-107.015625-46.394531-33.554687 0-60.683594 6.574219-80.640625 19.539062-3.519531 2.285157-4.519531 6.996094-2.230469 10.519532 2.285157 3.519531 6.996094 4.519531 10.515626 2.230468 17.449218-11.332031 41.792968-17.082031 72.355468-17.082031 36.699219 0 64.167969 8.269531 81.996094 24.601563-35.003906-3.429688-70.34375-1.457032-103.257812 5.890625-34 7.589843-63.914063 20.855469-82.070313 36.394531-.554687.472656-1.082031.953125-1.613281 1.429688 2.035156-10.679688 5.8125-21.996094 12.84375-32.164063 2.386718-3.453125 1.523437-8.191406-1.929688-10.578125-3.457031-2.390625-8.191406-1.527344-10.578125 1.925781-17.917969 25.910157-17.917969 56.375-17.917969 72.742188 0 18.925781 15.992188 36.078125 44.089844 47.558593v3.0625c0 22.886719 9.859375 43.515626 25.550782 57.867188-15.34375 3.59375-28.054688 14.539062-33.773438 29.4375h-145.9375c-12.90625 0-23.40625 10.5-23.40625 23.40625v19.921875c0 11.125 7.800781 20.453125 18.222656 22.820313v149.605468c0 23.054688 18.753906 41.808594 41.804688 41.808594h391.945312c23.050782 0 41.804688-18.753906 41.804688-41.808594v-149.605468c10.421875-2.367188 18.222656-11.695313 18.222656-22.820313v-19.921875c0-12.90625-10.5-23.40625-23.40625-23.40625zm-339.90625-137.921875c0-6.402344 4.925781-14.148437 13.875-21.808594 32.167969-27.527343 107.046875-48.777343 188.90625-36.902343 11.835938 20.917968 11.84375 45.355468 11.84375 58.707031 0 11.132812-10.605469 22.332031-28.871094 30.957031v-34.261719c0-3.03125-1.796875-5.769531-4.578125-6.976562-46.9375-20.382813-100.78125-20.382813-147.71875 0-2.777343 1.207031-4.578125 3.945312-4.578125 6.976562v34.261719c-18.265625-8.621094-28.875-19.820312-28.878906-30.953125zm44.089844 50.617187v-48.859374c40.453125-16.167969 86-16.167969 126.457031 0v48.859374c0 30.269532-21.539063 56.378907-51.214844 62.078126-3.347656.648437-6.773437 1.023437-10.183593 1.121093-.066407 0-.140626.003907-.207032.003907-.542968.015624-1.082031.019531-1.625.019531-34.863281 0-63.226562-28.363281-63.226562-63.222657zm21.375 71.792969h10.320312c9.65625 4.257813 20.316406 6.636719 31.53125 6.636719.652344 0 1.304688-.003906 1.953125-.023438h.195313c4.265625-.117187 8.554687-.585937 12.738281-1.390624 5.855469-1.125 11.457031-2.898438 16.734375-5.222657h10.21875c11.632812 0 22.054688 6.054688 27.898438 15.511719h-139.488282c5.84375-9.460938 16.265625-15.511719 27.898438-15.511719zm-65.636719 82.246094h42.335937v175.621094h-42.335937zm-15.207031 175.621094h-42.335938v-175.621094h42.335938zm72.75-175.621094h42.335937v175.621094h-42.335937zm57.546875 0h42.335937v175.621094h-42.335937zm57.542969 0h42.335937v175.621094h-42.335937zm57.542968 0h42.335938v175.621094h-42.335938zm-345.261718 149.019531v-149.019531h42.335937v175.621094h-15.738281c-14.664063 0-26.597656-11.933594-26.597656-26.601563zm445.140624 0c0 14.667969-11.933593 26.601563-26.597656 26.601563h-15.738281v-175.621094h42.335937zm0 0"/><path d="m422.1875 194.359375c-6.097656 5.511719-13.679688 12.367187-13.679688 25.847656 0 4.199219 3.402344 7.605469 7.601563 7.605469 4.203125 0 7.605469-3.40625 7.605469-7.605469 0-6.425781 2.972656-9.414062 8.671875-14.566406 6.09375-5.507813 13.679687-12.367187 13.679687-25.847656s-7.585937-20.335938-13.679687-25.847657c-5.699219-5.148437-8.671875-8.136718-8.671875-14.566406 0-6.425781 2.972656-9.410156 8.671875-14.5625 6.09375-5.507812 13.679687-12.367187 13.679687-25.84375 0-4.199218-3.40625-7.605468-7.605468-7.605468-4.199219 0-7.605469 3.40625-7.605469 7.605468 0 6.425782-2.972657 9.414063-8.667969 14.5625-6.097656 5.507813-13.679688 12.367188-13.679688 25.84375 0 13.480469 7.582032 20.339844 13.679688 25.847656 5.695312 5.152344 8.667969 8.140626 8.667969 14.566407 0 6.429687-2.972657 9.414062-8.667969 14.566406zm0 0"/><path d="m79.613281 194.359375c-6.09375 5.511719-13.679687 12.367187-13.679687 25.847656 0 4.199219 3.40625 7.605469 7.605468 7.605469 4.199219 0 7.605469-3.40625 7.605469-7.605469 0-6.425781 2.972657-9.414062 8.667969-14.566406 6.097656-5.507813 13.679688-12.367187 13.679688-25.847656s-7.582032-20.335938-13.679688-25.847657c-5.695312-5.152343-8.667969-8.136718-8.667969-14.566406 0-6.425781 2.972657-9.414062 8.667969-14.5625 6.097656-5.511718 13.679688-12.367187 13.679688-25.847656 0-4.199219-3.402344-7.601562-7.601563-7.601562s-7.605469 3.402343-7.605469 7.601562c0 6.425781-2.972656 9.414062-8.667968 14.566406-6.097657 5.507813-13.683594 12.363282-13.683594 25.84375 0 13.480469 7.585937 20.335938 13.679687 25.847656 5.699219 5.152344 8.671875 8.136719 8.671875 14.566407 0 6.429687-2.972656 9.414062-8.671875 14.566406zm0 0"/></svg>