<svg height="512" viewBox="0 0 512 512" width="512" xmlns="http://www.w3.org/2000/svg"><g id="filled_outlline" data-name="filled outlline"><path d="m24 288h464v200h-464z" fill="#d18d28"/><path d="m24 288h464v32h-464z" fill="#c38325"/><path d="m488 424c-46.4 0-46.4-16-92.8-16s-46.4 16-92.8 16-46.4-16-92.8-16-46.4 16-92.8 16-46.4-16-92.8-16v80h464z" fill="#92d1f7"/><path d="m360 412.38c8.16-2.32 17.81-4.12 32-4.35v79.97h-32z" fill="#5ebef7"/><path d="m488 424v64h-32v-67.52c8.12 2.05 17.93 3.52 32 3.52z" fill="#5ebef7"/><path d="m360 288-32-96h32l32 96z" fill="#422608"/><circle cx="352" cy="40" fill="#e82f3e" r="16"/><path d="m440 224a48 48 0 0 0 -48 48v16h32v-16a16 16 0 0 1 32 0v80h-66v32h66v104h32v-216a48 48 0 0 0 -48-48z" fill="#cbcbcb"/><path d="m390 368h66v16h-66z" fill="#b9b9b9"/><g fill="#5ebef7"><path d="m302.394 464a152.2 152.2 0 0 1 -23.63-1.661 8 8 0 1 1 2.472-15.808 136.471 136.471 0 0 0 21.158 1.469c21.86 0 32.513-3.674 43.794-7.563 1.078-.372 2.156-.744 3.244-1.112a8 8 0 1 1 5.136 15.152q-1.59.54-3.165 1.086c-12.029 4.148-24.468 8.437-49.009 8.437z"/><path d="m232.01 449.568a8.136 8.136 0 0 1 -1.247-.1 136.425 136.425 0 0 0 -21.169-1.468c-3.19 0-6.27.081-9.156.239a8 8 0 1 1 -.876-15.976c3.175-.175 6.55-.263 10.032-.263a152.193 152.193 0 0 1 23.643 1.663 8 8 0 0 1 -1.227 15.9z"/><path d="m116.8 464c-22.6 0-34.837-3.57-47.4-7.882a8 8 0 0 1 5.2-15.133c11.573 3.974 22.03 7.015 42.2 7.015 16.53 0 26.328-2.179 33.018-4.078a8 8 0 0 1 4.368 15.393c-11.42 3.24-22.951 4.685-37.386 4.685z"/></g><path d="m105.778 160-44.954-101.146a18.276 18.276 0 0 0 -16.701-10.854 18.276 18.276 0 0 0 -16.7 25.7l52.577 118.3h312v-16a16 16 0 0 0 -16-16z" fill="#683b0d"/><path d="m80 288 32-96h-32l-32 96z" fill="#422608"/><rect fill="#007af6" height="32" rx="16" width="264" x="120" y="128"/><rect fill="#007af6" height="80" rx="16" transform="matrix(.909 -.416 .416 .909 -35.086 50.647)" width="32" x="82.665" y="65.828"/><path d="m264 240h-96v-112a8 8 0 0 1 8-8h80a8 8 0 0 1 8 8z" fill="#e2e2e2"/><path d="m168 176h96v32h-96z" fill="#92d1f7"/><path d="m312 100-34-52h68z" fill="#02a437"/><path d="m346 48-34 52-3-4.59 31-47.41z" fill="#029532"/><path d="m320 109.3v-21.3h-16v21.3a25.878 25.878 0 0 0 -8 18.7h32a25.878 25.878 0 0 0 -8-18.7z" fill="#cbcbcb"/><path d="m322 128h-26a25.874 25.874 0 0 1 8-18.7v-21.3h10v21.3a25.812 25.812 0 0 1 8 18.7z" fill="#e2e2e2"/><path d="m322 128h-26a25.874 25.874 0 0 1 8-18.7v-21.3h10v21.3a25.812 25.812 0 0 1 8 18.7z" fill="#e2e2e2"/><path d="m296 272v16h32v-16a16 16 0 0 1 16-16 16 16 0 0 1 16 16v216h32v-216a48 48 0 0 0 -48-48 48 48 0 0 0 -48 48z" fill="#e2e2e2"/><path d="m488 424c-14.07 0-23.88-1.47-32-3.52v23.72c-4.172-1.139-7.947-2.44-11.8-3.767a157.811 157.811 0 0 0 -18.488-5.483 8 8 0 0 0 -3.434 15.627 142.774 142.774 0 0 1 16.706 4.982 166.16 166.16 0 0 0 17.016 5.16v27.281h32z" fill="#5ebef7"/><path d="m392 408.03v79.97h-32v-75.62c8.16-2.32 17.81-4.12 32-4.35z" fill="#5ebef7"/><path d="m440 216a56.021 56.021 0 0 0 -48 27.19 56.361 56.361 0 0 0 -10.853-13.046l-10.047-30.144h20.9a8 8 0 0 0 8-8v-16a24 24 0 0 0 -11.1-20.223 23.982 23.982 0 0 0 -20.9-35.777h-32.962a33.6 33.6 0 0 0 -15.038-20.766v-8.428l22.887-28.606a24 24 0 1 0 -14.887-22.2h-48a8 8 0 0 0 -6.247 13l30.247 37.806v8.428a33.6 33.6 0 0 0 -15.038 20.766h-19.127a16 16 0 0 0 -13.835-8h-80a16 16 0 0 0 -13.835 8h-26.165a24.015 24.015 0 0 0 -3.985.337 24.072 24.072 0 0 0 -1.54-4.5l-19.975-43.647a23.966 23.966 0 0 0 -38.3-7.443l-4.065-9.147a26.277 26.277 0 0 0 -48.024 21.348l51.318 115.465-29.195 87.587h-18.234a8 8 0 0 0 -8 8v200a8 8 0 0 0 8 8h464a8 8 0 0 0 8-8v-216a56.063 56.063 0 0 0 -56-56zm-88-184a8 8 0 0 1 0 16h-.011a7.972 7.972 0 0 0 -7.989-8 8.009 8.009 0 0 1 8-8zm128 415.819a116.414 116.414 0 0 1 -16-1.778v-15.754a138.423 138.423 0 0 0 16 1.55zm-32-6.085c-1.268-.426-2.528-.86-3.8-1.3a157.811 157.811 0 0 0 -18.488-5.483 8 8 0 0 0 -3.434 15.627 142.774 142.774 0 0 1 16.706 4.982c2.923 1.008 5.872 2.024 9.011 2.984v21.456h-47.995v-63.935c18.678.5 28.571 3.905 38.991 7.5 2.921 1.007 5.873 2.021 9.009 2.981zm-48-81.734h48v16h-48zm48-16h-48v-16h48zm-3.794 64.437c-11.217-3.868-22.8-7.857-44.206-8.378v-8.059h48v17.734c-1.268-.427-2.527-.86-3.794-1.297zm3.794-128.437h-16v-8a8 8 0 0 1 16 0zm0 16v16h-48v-16zm-64-24v128.332a128.9 128.9 0 0 0 -16 1.938v-114.231c0-.013 0-.026 0-.039s0-.026 0-.039v-15.961a24 24 0 0 0 -48 0v8h-16v-8a40 40 0 0 1 80 0zm-352 56h320v78.467c-1.979.648-3.9 1.311-5.812 1.97-11.281 3.889-21.934 7.563-43.794 7.563s-32.513-3.674-43.791-7.563c-12.03-4.148-24.468-8.437-49.009-8.437s-36.978 4.289-49.006 8.437c-11.278 3.889-21.932 7.563-43.788 7.563s-32.513-3.674-43.791-7.563c-10.646-3.671-21.617-7.45-41.007-8.271zm320-48h-16v-8a8 8 0 0 1 16 0zm-260.9 0 26.666-80h42.234v40a8 8 0 0 0 8 8h96a8 8 0 0 0 8-8v-40h50.234l6.083 18.251a56.089 56.089 0 0 0 -40.317 53.749v8zm84.9-64h80v16h-80zm80-16h-80v-16h80zm104.383 18.45a55.819 55.819 0 0 0 -15.946-2.439l-5.337-16.011h15.133zm23.617-34.45h-112v-16h104a8.009 8.009 0 0 1 8 8zm-8-40a8.009 8.009 0 0 1 -8 8h-96v-16h96a8.009 8.009 0 0 1 8 8zm-48.645-88-15.355 19.194-15.355-19.194zm-15.355 57.089a17.771 17.771 0 0 1 6.13 6.911h-12.26a17.771 17.771 0 0 1 6.13-6.911zm-56 14.911v40h-80v-40zm-96 8v16h-24a8 8 0 0 1 0-16zm-47.358 13.5a23.874 23.874 0 0 0 .734 2.5h-2.4l-.976-2.2a23.8 23.8 0 0 0 2.642-.3zm-31.46-70.11a8 8 0 0 1 14.772-.538l19.971 43.648a8.008 8.008 0 0 1 -3.946 10.6 8 8 0 0 1 -10.6-3.947l-19.3-42.18-.844-1.9a7.936 7.936 0 0 1 -.053-5.687zm-45.676-18.713a10.11 10.11 0 0 1 8.617-4.677 10.287 10.287 0 0 1 9.391 6.1l44.953 101.149a8 8 0 0 0 7.31 4.751h54.223v16h-74.8l-50.468-113.551a10.106 10.106 0 0 1 .774-9.772zm50.26 139.323h15.134l-26.666 80h-15.134zm-53.766 96h320v16h-320zm0 120.18c16.646.781 25.981 4 35.79 7.383 12.029 4.148 24.468 8.437 49.01 8.437s36.977-4.289 49.007-8.437c11.278-3.889 21.93-7.563 43.789-7.563s32.513 3.674 43.793 7.563c12.028 4.148 24.467 8.437 49.007 8.437s36.98-4.289 49.008-8.437l.6-.206v15.548c-.852 0-27.746 9.1-49.606 9.1a136.471 136.471 0 0 1 -21.158-1.469 8 8 0 1 0 -2.472 15.808 152.2 152.2 0 0 0 23.626 1.656c24.541 0 36.98-4.289 49.009-8.437.2-.068.4-.136.6-.2v24.637h-320.003zm336 63.82v-61.392a107.73 107.73 0 0 1 16-2.243v63.635zm96 0v-17.715a138.462 138.462 0 0 0 16 1.549v16.166zm16-64.181a116.57 116.57 0 0 1 -16-1.778v-142.041a24 24 0 0 0 -48 0v8h-16v-8a40 40 0 0 1 80 0z"/><path d="m233.237 433.663a152.193 152.193 0 0 0 -23.643-1.663c-3.482 0-6.857.088-10.032.263a8 8 0 1 0 .876 15.976c2.886-.158 5.966-.239 9.156-.239a136.425 136.425 0 0 1 21.169 1.471 8.136 8.136 0 0 0 1.247.1 8 8 0 0 0 1.227-15.9z"/><path d="m149.816 443.922c-6.69 1.9-16.488 4.078-33.018 4.078-20.168 0-30.625-3.041-42.2-7.015a8 8 0 0 0 -5.2 15.133c12.563 4.312 24.802 7.882 47.402 7.882 14.437 0 25.968-1.445 37.386-4.685a8 8 0 0 0 -4.368-15.393z"/></g></svg>